<svg xmlns="http://www.w3.org/2000/svg" version="1.1" xmlns:xlink="http://www.w3.org/1999/xlink" xmlns:svgjs="http://svgjs.dev/svgjs" width="1500" height="1500" viewBox="0 0 1500 1500"><rect width="1500" height="1500" fill="#000000"></rect><g transform="matrix(0.6666666666666666,0,0,0.6666666666666666,249.39393939393938,572.134571809269)"><svg viewBox="0 0 396 140" data-background-color="#2979ff" preserveAspectRatio="xMidYMid meet" height="530" width="1500" xmlns="http://www.w3.org/2000/svg" xmlns:xlink="http://www.w3.org/1999/xlink"><g id="tight-bounds" transform="matrix(1,0,0,1,0.2400000000000091,0.47498098123307386)"><svg viewBox="0 0 395.52 139.05003803753385" height="139.05003803753385" width="395.52"><g><svg viewBox="0 0 641.3083018433335 225.46001154202511" height="139.05003803753385" width="395.52"><g transform="matrix(1,0,0,1,245.78830184333353,69.6704160953011)"><svg viewBox="0 0 395.52 86.11917935142289" height="86.11917935142289" width="395.52"><g id="textblocktransform"><svg viewBox="0 0 395.52 86.11917935142289" height="86.11917935142289" width="395.52" id="textblock"><g><svg viewBox="0 0 395.52 86.11917935142289" height="86.11917935142289" width="395.52"><g transform="matrix(1,0,0,1,0,0)"><svg width="395.52" viewBox="3.9 -36.75 226.63 49.35" height="86.11917935142289" data-palette-color="#ffffff"><path d="M3.9 0L3.9-36.75 13.25-36.75Q21.15-36.75 23.75-34.1 26.35-31.45 26.35-27.7L26.35-27.7Q26.35-25.2 25.25-22.98 24.15-20.75 21.75-19.65L21.75-19.65Q25.3-18.75 26.98-16.5 28.65-14.25 28.65-11.2L28.65-11.2Q28.65-8 27.65-5.6 26.65-3.2 23.5-1.6 20.35 0 14.4 0L14.4 0 3.9 0ZM9.4-21.15L14.15-21.15Q17.7-21.15 19.2-22.88 20.7-24.6 20.7-27.25L20.7-27.25Q20.7-32 13.9-32L13.9-32 9.4-32 9.4-21.15ZM9.4-4.7L15.15-4.7Q19.7-4.7 21.28-6.53 22.85-8.35 22.85-11.15L22.85-11.15Q22.85-13.8 21.05-15.25 19.25-16.7 15.6-16.7L15.6-16.7 9.4-16.7 9.4-4.7ZM42.8 0.5Q38.05 0.5 36.27-2.3 34.5-5.1 34.5-10.1L34.5-10.1 34.5-22.95 39.9-22.95 39.9-11.45Q39.9-8.6 40.22-7.03 40.55-5.45 41.52-4.7 42.5-3.95 44.45-3.95L44.45-3.95Q45.85-3.95 47.15-4.75 48.45-5.55 49.27-6.93 50.1-8.3 50.1-9.95L50.1-9.95 50.1-22.95 55.45-22.95 55.45 0 51.05 0 50.45-3.35Q49.2-1.4 47.32-0.45 45.45 0.5 42.8 0.5L42.8 0.5ZM63.05 0L63.05-22.95 68.64-22.95 68.64 0 63.05 0ZM65.8-27.25Q64.25-27.25 63.2-28.3 62.14-29.35 62.14-30.9L62.14-30.9Q62.14-32.3 63.2-33.3 64.25-34.3 65.8-34.3L65.8-34.3Q67.3-34.3 68.34-33.3 69.39-32.3 69.39-30.9L69.39-30.9Q69.39-29.35 68.37-28.3 67.34-27.25 65.8-27.25L65.8-27.25ZM76.59 0L76.59-36.75 81.94-36.75 81.94 0 76.59 0ZM99.69 0.5Q96.59 0.5 93.97-0.98 91.34-2.45 89.77-5.18 88.19-7.9 88.19-11.55L88.19-11.55Q88.19-17 91.24-20.28 94.29-23.55 99.49-23.55L99.49-23.55Q102.39-23.55 104.79-22.13 107.19-20.7 108.04-18.7L108.04-18.7 107.79-22.6 107.79-36.75 113.09-36.75 113.09 0 107.94 0 107.84-4.05Q106.99-2.25 104.74-0.88 102.49 0.5 99.69 0.5L99.69 0.5ZM100.59-4.05Q103.44-4.05 105.39-6.03 107.34-8 107.34-11.2L107.34-11.2 107.34-11.55Q107.34-13.7 106.44-15.4 105.54-17.1 103.99-18.05 102.44-19 100.59-19L100.59-19Q97.39-19 95.64-16.93 93.89-14.85 93.89-11.55L93.89-11.55Q93.89-8.2 95.62-6.13 97.34-4.05 100.59-4.05L100.59-4.05ZM132.78 0L132.78-36.75 148.88-36.75 148.88-31.85 138.34-31.85 138.34-21.7 146.84-21.7 146.84-16.7 138.34-16.7 138.34-4.95 150.53-4.95 150.53 0 132.78 0ZM165.98 0.5Q162.88 0.5 160.26-0.98 157.63-2.45 156.06-5.18 154.48-7.9 154.48-11.55L154.48-11.55Q154.48-15.15 155.86-17.85 157.23-20.55 159.78-22.05 162.33-23.55 165.78-23.55L165.78-23.55Q167.78-23.55 169.53-22.85 171.28-22.15 172.48-21.13 173.68-20.1 174.08-19.1L174.08-19.1 174.18-22.95 179.33-22.95 179.33 0 174.23 0 174.13-4.05Q173.28-2.25 171.03-0.88 168.78 0.5 165.98 0.5L165.98 0.5ZM166.88-4Q169.73-4 171.68-5.98 173.63-7.95 173.63-11.15L173.63-11.15 173.63-11.5Q173.63-13.65 172.73-15.35 171.83-17.05 170.28-18 168.73-18.95 166.88-18.95L166.88-18.95Q163.68-18.95 161.93-16.88 160.18-14.8 160.18-11.5L160.18-11.5Q160.18-8.15 161.91-6.08 163.63-4 166.88-4L166.88-4ZM194.48 0.5Q192.08 0.5 189.5-0.13 186.93-0.75 185.83-1.6L185.83-1.6 187.63-5.85Q190.63-3.75 194.48-3.75L194.48-3.75Q198.33-3.75 198.33-6L198.33-6Q198.33-7 197.53-7.55 196.73-8.1 194.68-8.85L194.68-8.85 192.78-9.55Q189.78-10.75 188.03-12.43 186.28-14.1 186.28-16.85L186.28-16.85Q186.28-20 188.75-21.78 191.23-23.55 195.38-23.55L195.38-23.55Q197.43-23.55 199.41-23.1 201.38-22.65 202.43-21.95L202.43-21.95 200.48-17.65Q199.83-18.3 198.41-18.78 196.98-19.25 195.23-19.25L195.23-19.25Q191.68-19.25 191.68-17.1L191.68-17.1Q191.68-15.9 192.63-15.28 193.58-14.65 195.73-13.9L195.73-13.9Q195.93-13.85 197.28-13.35L197.28-13.35Q200.48-12.1 202.03-10.5 203.58-8.9 203.58-6.4L203.58-6.4Q203.58-3 201-1.25 198.43 0.5 194.48 0.5L194.48 0.5ZM210.83 12.6L215.78 0.7 206.28-22.95 212.38-22.95 217.28-8.35 218.38-4.8 219.48-8.35 224.63-22.95 230.53-22.95 216.43 12.6 210.83 12.6Z" opacity="1" transform="matrix(1,0,0,1,0,0)" fill="#ffffff" class="wordmark-text-0" data-fill-palette-color="primary" id="text-0"></path></svg></g></svg></g></svg></g></svg></g><g><svg viewBox="0 0 225.45763045876703 225.46001154202511" height="225.46001154202511" width="225.45763045876703"><g><svg xmlns="http://www.w3.org/2000/svg" xmlns:cc="http://creativecommons.org/ns#" xmlns:dc="http://purl.org/dc/elements/1.1/" xmlns:rdf="http://www.w3.org/1999/02/22-rdf-syntax-ns#" version="1.1" viewBox="3.053 2.572 94.687 94.688" x="0" y="0" height="225.46001154202511" width="225.45763045876703" class="icon-icon-0" data-fill-palette-color="accent" id="icon-0"><path d="M18.379 2.572C9.961 2.572 3.053 8.895 3.053 16.824V83.008C3.053 90.938 9.962 97.26 18.379 97.26H82.414C90.832 97.26 97.74 90.938 97.74 83.008V16.824C97.74 8.895 90.832 2.572 82.414 2.572zM18.379 5.072H82.414C89.592 5.072 95.24 10.348 95.24 16.824V83.008C95.24 89.485 89.592 94.76 82.414 94.76H18.379C11.201 94.76 5.553 89.485 5.553 83.008V16.824C5.553 10.348 11.201 5.072 18.379 5.072M46.813 12.895C38.938 12.94 32.598 19.565 32.627 27.625 32.649 33.782 36.389 39.065 41.662 41.213L41.654 38.467C37.804 36.486 35.144 32.397 35.127 27.615 35.103 20.863 40.345 15.432 46.828 15.394S58.61 20.728 58.658 27.48V27.575C58.656 32.17 56.214 36.14 52.611 38.212V40.992C57.29 38.855 60.63 34.194 61.05 28.71H61.168L61.158 27.58 61.16 27.57V26.32H61.039C60.409 18.8 54.306 12.85 46.812 12.894zM47.104 27.555C44.519 27.555 42.324 29.575 42.331 32.133L42.4 56.035 35.182 49.175A4.3 4.3 0 0 0 32.215 47.99 3.98 3.98 0 0 0 29.315 49.218L28.899 49.656C28.114 50.482 27.794 51.59 27.879 52.609S28.397 54.576 29.036 55.386L42.005 71.826C42.014 71.836 42.047 71.882 42.098 71.957 42.127 72 42.156 72.057 42.173 72.087 42.159 72.06 42.194 72.19 42.21 72.325 42.226 72.463 42.23 72.555 42.23 72.573V75.048H40.82C39.827 75.048 39.05 75.69 38.606 76.408 38.162 77.124 37.944 77.987 37.944 78.922V83.062C37.944 83.996 38.162 84.86 38.606 85.577S39.827 86.937 40.82 86.937H70.051C71.043 86.937 71.82 86.295 72.264 85.577 72.708 84.86 72.926 83.997 72.926 83.062V78.922C72.926 77.989 72.708 77.126 72.264 76.408S71.044 75.047 70.051 75.047H68.768C68.737 74.107 68.7 72.545 68.842 71.764 68.965 71.086 69.035 71.05 69.317 70.495S69.992 69.061 70.47 67.29C71.053 65.135 71.099 61.072 71.108 57.265 71.116 53.457 71.01 50.085 71.01 50.085 71.143 47.54 68.976 45.531 66.54 45.531A4.33 4.33 0 0 0 63.921 46.42C63.152 45.08 61.77 44.151 60.145 44.151A4.24 4.24 0 0 0 57.569 45.039C56.798 43.708 55.419 42.788 53.8 42.788 53.105 42.788 52.458 42.972 51.877 43.271V32.128C51.877 29.575 49.69 27.554 47.104 27.554zM47.104 30.055C48.422 30.055 49.377 30.998 49.377 32.129V52.252A1.25 1.25 0 1 0 51.877 52.252V47.438C51.877 46.18 52.761 45.289 53.801 45.289S55.725 46.181 55.725 47.438V48.64L55.727 48.73C55.727 48.755 55.721 48.777 55.721 48.8V53.592A1.25 1.25 0 1 0 58.221 53.592V48.802C58.221 47.543 59.105 46.651 60.145 46.651S62.07 47.546 62.07 48.803V50.06L62.073 50.11 62.07 50.128V54.842A1.25 1.25 0 1 0 64.57 54.842V50.127C64.57 48.92 65.453 48.032 66.54 48.032 67.622 48.032 68.608 48.945 68.514 50.018A1 1 0 0 0 68.51 50.166S68.616 53.503 68.608 57.26C68.599 61.017 68.399 65.375 68.058 66.641 67.611 68.29 67.325 68.894 67.085 69.368S66.553 70.385 66.383 71.317C66.15 72.605 66.193 74.065 66.247 75.049H44.73V72.528L44.729 72.455S44.718 72.268 44.69 72.04C44.665 71.81 44.651 71.565 44.511 71.19 44.387 70.852 44.27 70.71 44.169 70.56A6 6 0 0 0 43.977 70.29L43.967 70.278 30.997 53.838C30.618 53.356 30.408 52.824 30.372 52.402S30.419 51.687 30.71 51.38L31.127 50.942C31.717 50.322 32.726 50.292 33.459 50.99L41.736 58.854C41.782 58.928 41.816 58.995 41.883 59.077 42.104 59.352 42.594 59.799 43.33 59.762A1.51 1.51 0 0 0 44.625 58.812C44.755 58.514 44.795 58.283 44.83 58.068 44.9 57.64 44.902 57.264 44.902 57.264L44.904 57.235 44.83 32.128C44.827 31.001 45.785 30.056 47.103 30.056zM40.819 77.549H70.05C69.959 77.549 69.995 77.493 70.139 77.724 70.282 77.956 70.426 78.404 70.426 78.924V83.062C70.426 83.582 70.282 84.03 70.139 84.262S69.959 84.436 70.05 84.436H40.819C40.91 84.437 40.876 84.493 40.733 84.261S40.443 83.581 40.443 83.062V78.924C40.444 78.404 40.59 77.956 40.734 77.724S40.91 77.55 40.819 77.55" color="#FFFFFF" color-rendering="auto" dominant-baseline="auto" fill-rule="evenodd" image-rendering="auto" shape-rendering="auto" solid-color="#FFFFFF" font-feature-settings="normal" font-variant-alternates="normal" font-variant-caps="normal" font-variant-ligatures="normal" font-variant-numeric="normal" font-variant-position="normal" isolation="auto" mix-blend-mode="normal" paint-order="fill markers stroke" shape-padding="0" text-decoration-color="#ffffff" text-decoration-line="none" text-decoration-style="solid" text-indent="0" text-orientation="mixed" text-transform="none" white-space="normal" fill="#ffffff" data-fill-palette-color="accent"></path></svg></g></svg></g></svg></g><defs></defs></svg><rect width="395.52" height="139.05003803753385" fill="none" stroke="none" visibility="hidden"></rect></g></svg></g></svg>